<svg width="200" height="200" viewBox="0 0 200 200" fill="none" xmlns="http://www.w3.org/2000/svg">
  <!-- Background Circle -->
  <circle cx="100" cy="100" r="95" fill="#000000"/>
  <circle cx="100" cy="100" r="95" stroke="#FFFFFF" stroke-width="2"/>

  <!-- Pocket Shape -->
  <path d="M 50 70 L 50 130 Q 50 150 70 150 L 130 150 Q 150 150 150 130 L 150 70 Q 150 50 130 50 L 70 50 Q 50 50 50 70 Z"
        fill="#FFFFFF"
        stroke="#000000"
        stroke-width="2"/>

  <!-- Pocket Opening (curved line at top) -->
  <path d="M 60 70 Q 100 85 140 70"
        stroke="#000000"
        stroke-width="3"
        stroke-linecap="round"
        fill="none"/>

  <!-- Solana Symbol (stylized S) -->
  <path d="M 85 95 L 105 95 L 110 100 L 90 100 Z"
        fill="#000000"/>
  <path d="M 90 105 L 110 105 L 115 110 L 95 110 Z"
        fill="#000000"/>
  <path d="M 95 115 L 115 115 L 120 120 L 100 120 Z"
        fill="#000000"/>
</svg>